<?xml version="1.0" encoding="utf-8"?>
<svg xmlns="http://www.w3.org/2000/svg" width="165" height="46" viewBox="0 0 165 46" fill="none">
	<path fill-rule="evenodd" clip-rule="evenodd" d="M78.379 30.2971C76.0894 33.0967 73.0679 34.4965 69.3151 34.4965C65.9123 34.4965 63.0818 33.4467 60.8236 31.3469C58.5974 29.2473 57.4844 26.4798 57.4844 23.044C57.4844 19.5765 58.5974 16.777 60.8236 14.6774C63.0499 12.5461 65.8169 11.4963 69.1561 11.4963C72.8135 11.4963 75.7713 12.8961 78.0291 15.6953L74.8489 18.9403C73.545 17.0632 71.3824 15.9181 68.9335 15.9181C67.1842 15.9181 65.6576 16.5543 64.322 17.8267C63.018 19.0675 62.3501 20.7852 62.3501 22.9485C62.3501 25.1436 63.018 26.8932 64.322 28.1658C65.626 29.4382 67.2479 30.0744 69.1877 30.0744C71.7004 30.0744 73.7038 29.0246 75.2305 26.9567L78.379 30.2971Z" fill="#281E38"/>
	<path fill-rule="evenodd" clip-rule="evenodd" d="M86.8063 28.0068C88.0148 29.3747 89.6368 30.0428 91.7039 30.0428C93.7075 30.0428 95.3297 29.3747 96.5065 28.0068C97.7148 26.6389 98.3189 24.9848 98.3189 22.9805C98.3189 21.0402 97.6831 19.3856 96.4427 18.018C95.2023 16.6501 93.6441 15.9503 91.7039 15.9503C89.6687 15.9503 88.0467 16.6182 86.8063 17.9861C85.5978 19.3539 84.9936 21.0083 84.9936 22.9805C84.9936 24.9848 85.5978 26.6389 86.8063 28.0068ZM83.4351 14.7731C85.6296 12.578 88.3646 11.4966 91.5769 11.4966C94.8207 11.4966 97.5559 12.578 99.7821 14.7731C102.008 16.9363 103.121 19.672 103.121 22.9805C103.121 26.3208 102.008 29.0566 99.7821 31.2516C97.5559 33.415 94.8207 34.4965 91.5769 34.4965C88.3646 34.4965 85.6296 33.415 83.4351 31.2516C81.2406 29.0566 80.1278 26.3208 80.1278 22.9805C80.1278 19.672 81.2406 16.9363 83.4351 14.7731Z" fill="#281E38"/>
	<path fill-rule="evenodd" clip-rule="evenodd" d="M114.061 18.2723L111.294 25.5573H116.828L114.061 18.2723ZM116.319 11.8464L125.033 34.1465H120.135L118.354 29.7564H109.736L107.987 34.1465H103.089L111.803 11.8464H116.319Z" fill="#281E38"/>
	<path fill-rule="evenodd" clip-rule="evenodd" d="M134.125 24.921C129.768 24.1893 127.097 21.9307 127.097 18.2406C127.097 16.1727 127.892 14.5505 129.514 13.3414C131.136 12.1006 133.076 11.4963 135.334 11.4963C138.8 11.4963 141.662 12.6733 143.921 15.0593L140.74 18.3996C139.055 16.6815 137.178 15.8229 135.079 15.8229C133.076 15.8229 131.804 16.7134 131.804 18.0179C131.804 19.1949 132.853 19.9901 134.984 20.372L137.178 20.7218C142.171 21.5171 144.684 23.8393 144.684 27.6887C144.684 29.7247 143.857 31.3788 142.235 32.6195C140.613 33.8602 138.482 34.4965 135.811 34.4965C131.899 34.4965 128.56 32.7466 126.556 30.2335L129.8 26.957C131.454 29.0882 133.553 30.1699 136.097 30.1699C138.514 30.1699 139.977 29.152 139.977 27.7522C139.977 26.5751 138.927 25.78 136.86 25.3981L134.125 24.921Z" fill="#281E38"/>
	<mask id="mask0" mask-type="alpha" maskUnits="userSpaceOnUse" x="146" y="11" width="19" height="24">
		<path fill-rule="evenodd" clip-rule="evenodd" d="M146.852 11.8464H164.344V34.1465H146.852V11.8464Z" fill="white"/>
	</mask>
	<g mask="url(#mask0)">
		<path fill-rule="evenodd" clip-rule="evenodd" d="M146.852 11.8464H164.344V16.2046H157.951V34.1465H153.245V16.2046H146.852V11.8464Z" fill="#281E38"/>
	</g>
	<path fill-rule="evenodd" clip-rule="evenodd" d="M30.6055 26.7522C29.2209 29.5573 26.3333 31.4877 22.9939 31.4877C19.6547 31.4877 16.7674 29.5573 15.3825 26.7522H9.48785C11.1288 32.6734 16.552 37.0217 22.9939 37.0217C29.4361 37.0217 34.8595 32.6734 36.5002 26.7522H30.6055Z" fill="#00CAAC"/>
	<path fill-rule="evenodd" clip-rule="evenodd" d="M30.6055 26.7522C29.2209 29.5573 26.3333 31.4877 22.9939 31.4877C19.6547 31.4877 16.7674 29.5573 15.3825 26.7522H9.48785C11.1288 32.6734 16.552 37.0217 22.9939 37.0217C29.4361 37.0217 34.8595 32.6734 36.5002 26.7522H30.6055Z" fill="#00CAAC"/>
	<path fill-rule="evenodd" clip-rule="evenodd" d="M40.0696 26.7522C38.3521 34.6067 31.3613 40.4882 22.9937 40.4882C13.338 40.4882 5.51031 32.6586 5.51031 23.0001C5.51031 13.3416 13.338 5.5118 22.9937 5.5118C31.3613 5.5118 38.3521 11.3933 40.0696 19.2478H45.6811C43.8899 8.33035 34.4153 0 22.9937 0C10.2947 0 0 10.2975 0 23.0001C0 35.7025 10.2947 46 22.9937 46C34.4153 46 43.8899 37.6699 45.6811 26.7522H40.0696Z" fill="#00CAAC"/>
</svg>